<svg width="78" height="78" viewBox="0 0 78 78" fill="none" xmlns="http://www.w3.org/2000/svg">
<path d="M47.6773 52.273C57.3798 54.1043 64.2551 58.7949 64.2551 64.2887V70.7142H12.8511V64.2887C12.8511 58.7949 19.7264 54.1043 29.4289 52.273L38.5531 67.5015L47.6773 52.273ZM25.7021 25.7357H51.4041V32.1612C51.4041 35.5695 50.0501 38.8382 47.6401 41.2482C45.2301 43.6583 41.9614 45.0122 38.5531 45.0122C35.1448 45.0122 31.8761 43.6583 29.466 41.2482C27.056 38.8382 25.7021 35.5695 25.7021 32.1612V25.7357ZM25.7021 22.523L27.0193 9.35068C27.0992 8.55545 27.4727 7.81856 28.0667 7.2839C28.6608 6.74924 29.4328 6.4552 30.232 6.45921H46.9062C48.5447 6.45921 49.9262 7.71218 50.0868 9.35068L51.4041 22.523H25.7021ZM38.5531 9.67196H35.3403V12.8847H32.1276V16.0975H35.3403V19.3102H38.5531V16.0975H41.7658V12.8847H38.5531V9.67196Z" fill="#3DCC44"/>
</svg>
